<svg width="48" height="48" viewBox="0 0 48 48" fill="none" xmlns="http://www.w3.org/2000/svg">
<g id="Group 47488">
<!-- <rect id="Rectangle 52" width="48" height="48" rx="10.2857" fill="#FFB224"/> -->
<path id="Vector" fill-rule="evenodd" clip-rule="evenodd" d="M20.989 13.1476C21.1169 13.1428 21.2494 13.1813 21.3584 13.2487C21.4531 13.3112 21.5714 13.4411 21.6188 13.5373C21.6709 13.6383 21.7088 13.7874 21.7088 13.8644C21.7088 13.9414 21.6709 14.0809 21.6283 14.1626C21.5856 14.2492 20.4871 15.6683 19.1896 17.3135C17.8921 18.9635 16.8314 20.32 16.8314 20.3345C16.8314 20.3489 20.0041 20.3585 23.887 20.3585C27.7699 20.3585 30.9426 20.3489 30.9426 20.3345C30.9426 20.32 29.8819 18.9635 28.5844 17.3135C27.2869 15.6683 26.1884 14.2492 26.1457 14.1626C26.1031 14.0809 26.0652 13.9414 26.0652 13.8644C26.0652 13.7874 26.1031 13.6383 26.1552 13.5373C26.2026 13.4411 26.3209 13.3112 26.4156 13.2487C26.5151 13.1861 26.6619 13.1428 26.7755 13.1428C26.8797 13.1428 27.0265 13.1813 27.107 13.2246C27.1875 13.2727 28.4802 14.8794 32.7894 20.3585H34.1152C35.3464 20.3585 35.4553 20.3633 35.6305 20.4547C35.7568 20.5189 35.8515 20.6151 35.9146 20.7433C36.0046 20.9261 36.0094 21.032 36.0094 22.5232C36.0094 24.0145 36.0046 24.1203 35.9146 24.3031C35.8515 24.4314 35.7568 24.5276 35.6305 24.5917C35.4743 24.6687 35.3464 24.6879 34.423 24.6831L33.0782 29.4599C32.3395 32.0864 31.6955 34.3136 31.6529 34.405C31.6055 34.4964 31.4919 34.6215 31.2267 34.7899H16.5473L16.3768 34.6792C16.2821 34.6215 16.1685 34.4964 16.1211 34.405C16.0785 34.3136 15.4345 32.0864 13.351 24.6831L12.8396 24.6879C12.4276 24.6879 12.2997 24.6687 12.1435 24.5917C12.0172 24.5276 11.9225 24.4314 11.8594 24.3031C11.7694 24.1203 11.7646 24.0145 11.7646 22.5232C11.7646 21.032 11.7694 20.9261 11.8594 20.7433C11.9225 20.6151 12.0172 20.5189 12.1435 20.4547C12.3187 20.3633 12.4276 20.3585 14.9846 20.3585L17.7311 16.8565C19.2464 14.9323 20.5486 13.3112 20.6339 13.2535C20.7286 13.1861 20.8611 13.1476 20.9843 13.1476H20.989ZM13.19 23.2448H34.5935V21.8016H13.19V23.2448ZM16.088 29.1039L17.286 33.3516H30.4975C32.3537 26.766 32.903 24.8178 32.9125 24.7745C32.9361 24.6927 32.4816 24.6879 23.887 24.6879C15.2924 24.6879 14.8379 24.6927 14.8663 24.7745C14.8805 24.8178 15.4298 26.766 16.088 29.1039ZM19.3459 26.1503C19.4642 26.1647 19.611 26.2128 19.6773 26.2657C19.7436 26.3139 19.8336 26.4197 19.8762 26.4967C19.9283 26.588 20.0846 27.4251 20.3119 28.8153C20.5107 30.0083 20.6717 31.081 20.6717 31.1965C20.6717 31.3263 20.6386 31.4562 20.5676 31.5669C20.506 31.6583 20.3829 31.7737 20.2929 31.8218C20.1745 31.8844 20.0656 31.9036 19.9141 31.8844C19.7957 31.8699 19.6489 31.8218 19.5826 31.7689C19.5163 31.7208 19.4264 31.615 19.3837 31.538C19.3316 31.4466 19.1754 30.6096 18.9481 29.2242C18.7492 28.0264 18.5882 26.9536 18.5882 26.843C18.5882 26.7083 18.6214 26.5784 18.6924 26.4678C18.7539 26.3764 18.8771 26.2609 18.967 26.2128C19.0854 26.1503 19.1943 26.1311 19.3459 26.1503ZM23.8775 26.1311C23.9628 26.1311 24.119 26.1743 24.2232 26.2273C24.3495 26.2914 24.4442 26.3876 24.5073 26.5159C24.5973 26.6987 24.602 26.8045 24.602 29.0173C24.602 31.2301 24.5973 31.336 24.5073 31.5188C24.4442 31.647 24.3495 31.7433 24.2232 31.8074C24.119 31.8603 23.9675 31.9036 23.8917 31.9036C23.8112 31.9036 23.6644 31.8603 23.5603 31.8074C23.434 31.7433 23.3393 31.647 23.2761 31.5188C23.1862 31.336 23.1814 31.2301 23.1814 29.0173C23.1814 26.8045 23.1862 26.6987 23.2761 26.5159C23.3377 26.3956 23.4371 26.2898 23.5461 26.2273C23.6455 26.1792 23.797 26.1359 23.8775 26.1311ZM28.556 26.1359C28.6318 26.1311 28.7738 26.1695 28.8638 26.2176C28.9538 26.2609 29.0769 26.3764 29.1384 26.4678C29.2095 26.5784 29.2426 26.7083 29.2426 26.843C29.2426 26.9536 29.0816 28.0264 28.8827 29.2242C28.6554 30.6096 28.4992 31.4466 28.4471 31.538C28.4045 31.615 28.3145 31.7208 28.2482 31.7689C28.1819 31.8218 28.0351 31.8699 27.9167 31.8844C27.7652 31.9036 27.6563 31.8844 27.5379 31.8218C27.4479 31.7737 27.3248 31.6583 27.2633 31.5669C27.1922 31.4562 27.1591 31.3263 27.1591 31.1965C27.1591 31.081 27.3201 30.0179 27.5142 28.8249C27.7084 27.6367 27.8978 26.6025 27.9357 26.5303C27.9736 26.4534 28.0399 26.3571 28.0872 26.3139C28.1393 26.2706 28.2293 26.2128 28.2956 26.184C28.3619 26.1599 28.4755 26.1359 28.556 26.1359Z" fill="white"/>
</g>
</svg>
