<svg width="14" height="15" viewBox="0 0 14 15" fill="none" xmlns="http://www.w3.org/2000/svg">
<path d="M13 14.0027L10.2658 11.0401M6.33925 12.5708C7.04041 12.5708 7.7347 12.4211 8.38249 12.1304C9.03028 11.8396 9.61887 11.4135 10.1147 10.8763C10.6105 10.339 11.0037 9.70127 11.2721 8.99935C11.5404 8.29744 11.6785 7.54513 11.6785 6.78538C11.6785 6.02563 11.5404 5.27333 11.2721 4.57141C11.0037 3.8695 10.6105 3.23172 10.1147 2.6945C9.61887 2.15728 9.03028 1.73113 8.38249 1.44039C7.7347 1.14964 7.04041 1 6.33925 1C4.92319 1 3.56513 1.60953 2.56383 2.6945C1.56253 3.77947 1 5.251 1 6.78538C1 8.31976 1.56253 9.7913 2.56383 10.8763C3.56513 11.9612 4.92319 12.5708 6.33925 12.5708Z" stroke="white" stroke-width="1.5" stroke-linecap="round" stroke-linejoin="round"/>
</svg>
